<?xml version="1.0" encoding="UTF-8" standalone="no"?>
<!DOCTYPE svg PUBLIC "-//W3C//DTD SVG 1.1//EN"
 "http://www.w3.org/Graphics/SVG/1.1/DTD/svg11.dtd">
<!-- Generated by graphviz version 2.47.3 (20210619.1520)
 -->
<!-- Title: dependencies Pages: 1 -->
<svg width="360pt" height="242pt"
 viewBox="0.00 0.00 360.00 241.80" xmlns="http://www.w3.org/2000/svg" xmlns:xlink="http://www.w3.org/1999/xlink">
<g id="graph0" class="graph" transform="scale(1 1) rotate(0) translate(4 237.8)">
<title>dependencies</title>
<polygon fill="white" stroke="transparent" points="-4,4 -4,-237.8 356,-237.8 356,4 -4,4"/>
<text text-anchor="middle" x="176" y="-8.2" font-family="sans-serif" font-size="14.00">dependencies</text>
<g id="clust1" class="cluster">
<title>cluster_AlphabetModule</title>
<polygon fill="none" stroke="black" stroke-dasharray="1,5" points="8,-32.8 8,-160.8 190,-160.8 190,-32.8 8,-32.8"/>
</g>
<g id="clust6" class="cluster">
<title>cluster_AlphabetModule_providers</title>
<polygon fill="none" stroke="black" points="16,-40.8 16,-92.8 182,-92.8 182,-40.8 16,-40.8"/>
</g>
<g id="clust7" class="cluster">
<title>cluster_AppModule</title>
<polygon fill="none" stroke="black" stroke-dasharray="1,5" points="198,-100.8 198,-225.8 344,-225.8 344,-100.8 198,-100.8"/>
</g>
<g id="clust12" class="cluster">
<title>cluster_AppModule_providers</title>
<polygon fill="none" stroke="black" points="206,-108.8 206,-160.8 336,-160.8 336,-108.8 206,-108.8"/>
</g>
<!-- AlphabetService -->
<g id="node1" class="node">
<title>AlphabetService</title>
<ellipse fill="#fdb462" stroke="black" cx="99" cy="-66.8" rx="75.28" ry="18"/>
<text text-anchor="middle" x="99" y="-62.6" font-family="Times,serif" font-size="14.00">AlphabetService</text>
</g>
<!-- AlphabetModule -->
<g id="node2" class="node">
<title>AlphabetModule</title>
<polygon fill="#8dd3c7" stroke="black" points="168.37,-152.8 165.37,-156.8 144.37,-156.8 141.37,-152.8 57.63,-152.8 57.63,-116.8 168.37,-116.8 168.37,-152.8"/>
<text text-anchor="middle" x="113" y="-130.6" font-family="Times,serif" font-size="14.00">AlphabetModule</text>
</g>
<!-- AlphabetService&#45;&gt;AlphabetModule -->
<g id="edge1" class="edge">
<title>AlphabetService&#45;&gt;AlphabetModule</title>
<path fill="none" stroke="black" d="M113,-84.67C113,-84.67 113,-106.34 113,-106.34"/>
<polygon fill="black" stroke="black" points="109.5,-106.34 113,-116.34 116.5,-106.34 109.5,-106.34"/>
</g>
<!-- AppModule -->
<g id="node3" class="node">
<title>AppModule</title>
<polygon fill="#8dd3c7" stroke="black" points="300.66,-217.8 297.66,-221.8 276.66,-221.8 273.66,-217.8 217.34,-217.8 217.34,-181.8 300.66,-181.8 300.66,-217.8"/>
<text text-anchor="middle" x="259" y="-195.6" font-family="Times,serif" font-size="14.00">AppModule</text>
</g>
<!-- AlphabetModule&#45;&gt;AppModule -->
<g id="edge2" class="edge">
<title>AlphabetModule&#45;&gt;AppModule</title>
<path fill="none" stroke="black" d="M113,-152.91C113,-172.14 113,-199.8 113,-199.8 113,-199.8 207.16,-199.8 207.16,-199.8"/>
<polygon fill="black" stroke="black" points="207.16,-203.3 217.16,-199.8 207.16,-196.3 207.16,-203.3"/>
</g>
<!-- AppService -->
<g id="node4" class="node">
<title>AppService</title>
<ellipse fill="#fdb462" stroke="black" cx="271" cy="-134.8" rx="56.74" ry="18"/>
<text text-anchor="middle" x="271" y="-130.6" font-family="Times,serif" font-size="14.00">AppService</text>
</g>
<!-- AppService&#45;&gt;AppModule -->
<g id="edge3" class="edge">
<title>AppService&#45;&gt;AppModule</title>
<path fill="none" stroke="black" d="M259,-152.56C259,-152.56 259,-171.61 259,-171.61"/>
<polygon fill="black" stroke="black" points="255.5,-171.61 259,-181.61 262.5,-171.61 255.5,-171.61"/>
</g>
</g>
</svg>
