<?xml version="1.0" encoding="UTF-8" standalone="no"?>
<!DOCTYPE svg PUBLIC "-//W3C//DTD SVG 1.1//EN"
 "http://www.w3.org/Graphics/SVG/1.1/DTD/svg11.dtd">
<!-- Generated by graphviz version 2.47.3 (20210619.1520)
 -->
<!-- Title: dependencies Pages: 1 -->
<svg width="304pt" height="174pt"
 viewBox="0.00 0.00 304.00 173.80" xmlns="http://www.w3.org/2000/svg" xmlns:xlink="http://www.w3.org/1999/xlink">
<g id="graph0" class="graph" transform="scale(1 1) rotate(0) translate(4 169.8)">
<title>dependencies</title>
<polygon fill="white" stroke="transparent" points="-4,4 -4,-169.8 300,-169.8 300,4 -4,4"/>
<text text-anchor="middle" x="148" y="-8.2" font-family="sans-serif" font-size="14.00">dependencies</text>
<g id="clust1" class="cluster">
<title>cluster_AppModule</title>
<polygon fill="none" stroke="black" stroke-dasharray="1,5" points="8,-32.8 8,-157.8 288,-157.8 288,-32.8 8,-32.8"/>
</g>
<g id="clust6" class="cluster">
<title>cluster_AppModule_providers</title>
<polygon fill="none" stroke="black" points="150,-40.8 150,-92.8 280,-92.8 280,-40.8 150,-40.8"/>
</g>
<g id="clust3" class="cluster">
<title>cluster_AppModule_imports</title>
<polygon fill="none" stroke="black" points="16,-40.8 16,-92.8 142,-92.8 142,-40.8 16,-40.8"/>
</g>
<!-- AlphabetModule -->
<g id="node1" class="node">
<title>AlphabetModule</title>
<polygon fill="#8dd3c7" stroke="black" points="134.37,-84.8 131.37,-88.8 110.37,-88.8 107.37,-84.8 23.63,-84.8 23.63,-48.8 134.37,-48.8 134.37,-84.8"/>
<text text-anchor="middle" x="79" y="-62.6" font-family="Times,serif" font-size="14.00">AlphabetModule</text>
</g>
<!-- AppModule -->
<g id="node2" class="node">
<title>AppModule</title>
<polygon fill="#8dd3c7" stroke="black" points="188.66,-149.8 185.66,-153.8 164.66,-153.8 161.66,-149.8 105.34,-149.8 105.34,-113.8 188.66,-113.8 188.66,-149.8"/>
<text text-anchor="middle" x="147" y="-127.6" font-family="Times,serif" font-size="14.00">AppModule</text>
</g>
<!-- AlphabetModule&#45;&gt;AppModule -->
<g id="edge1" class="edge">
<title>AlphabetModule&#45;&gt;AppModule</title>
<path fill="none" stroke="black" d="M119.8,-84.91C119.8,-84.91 119.8,-103.79 119.8,-103.79"/>
<polygon fill="black" stroke="black" points="116.3,-103.79 119.8,-113.79 123.3,-103.79 116.3,-103.79"/>
</g>
<!-- AppService -->
<g id="node3" class="node">
<title>AppService</title>
<ellipse fill="#fdb462" stroke="black" cx="215" cy="-66.8" rx="56.74" ry="18"/>
<text text-anchor="middle" x="215" y="-62.6" font-family="Times,serif" font-size="14.00">AppService</text>
</g>
<!-- AppService&#45;&gt;AppModule -->
<g id="edge2" class="edge">
<title>AppService&#45;&gt;AppModule</title>
<path fill="none" stroke="black" d="M173.6,-79.33C173.6,-79.33 173.6,-103.65 173.6,-103.65"/>
<polygon fill="black" stroke="black" points="170.1,-103.65 173.6,-113.65 177.1,-103.65 170.1,-103.65"/>
</g>
</g>
</svg>
