<?xml version="1.0" encoding="UTF-8" standalone="no"?>
<!DOCTYPE svg PUBLIC "-//W3C//DTD SVG 1.1//EN"
 "http://www.w3.org/Graphics/SVG/1.1/DTD/svg11.dtd">
<!-- Generated by graphviz version 2.47.3 (20210619.1520)
 -->
<!-- Title: dependencies Pages: 1 -->
<svg width="206pt" height="174pt"
 viewBox="0.00 0.00 206.00 173.80" xmlns="http://www.w3.org/2000/svg" xmlns:xlink="http://www.w3.org/1999/xlink">
<g id="graph0" class="graph" transform="scale(1 1) rotate(0) translate(4 169.8)">
<title>dependencies</title>
<polygon fill="white" stroke="transparent" points="-4,4 -4,-169.8 202,-169.8 202,4 -4,4"/>
<text text-anchor="middle" x="99" y="-8.2" font-family="sans-serif" font-size="14.00">dependencies</text>
<g id="clust1" class="cluster">
<title>cluster_AlphabetModule</title>
<polygon fill="none" stroke="black" stroke-dasharray="1,5" points="8,-32.8 8,-157.8 190,-157.8 190,-32.8 8,-32.8"/>
</g>
<g id="clust6" class="cluster">
<title>cluster_AlphabetModule_providers</title>
<polygon fill="none" stroke="black" points="16,-40.8 16,-92.8 182,-92.8 182,-40.8 16,-40.8"/>
</g>
<!-- AlphabetService -->
<g id="node1" class="node">
<title>AlphabetService</title>
<ellipse fill="#fdb462" stroke="black" cx="99" cy="-66.8" rx="75.28" ry="18"/>
<text text-anchor="middle" x="99" y="-62.6" font-family="Times,serif" font-size="14.00">AlphabetService</text>
</g>
<!-- AlphabetModule -->
<g id="node2" class="node">
<title>AlphabetModule</title>
<polygon fill="#8dd3c7" stroke="black" points="154.37,-149.8 151.37,-153.8 130.37,-153.8 127.37,-149.8 43.63,-149.8 43.63,-113.8 154.37,-113.8 154.37,-149.8"/>
<text text-anchor="middle" x="99" y="-127.6" font-family="Times,serif" font-size="14.00">AlphabetModule</text>
</g>
<!-- AlphabetService&#45;&gt;AlphabetModule -->
<g id="edge1" class="edge">
<title>AlphabetService&#45;&gt;AlphabetModule</title>
<path fill="none" stroke="black" d="M99,-84.91C99,-84.91 99,-103.79 99,-103.79"/>
<polygon fill="black" stroke="black" points="95.5,-103.79 99,-113.79 102.5,-103.79 95.5,-103.79"/>
</g>
</g>
</svg>
